<svg version="1.1" id="Layer_1" xmlns="http://www.w3.org/2000/svg" x="0" y="0" viewBox="0 0 640 167" style="enable-background:new 0 0 640 167" xml:space="preserve" width="640" height="167" class="logoSVG">
  <style>
    .st4{fill:url(#SVGID_00000090255922813121810640000006585188601261499308_);stroke:#000;stroke-width:.5;stroke-miterlimit:10}.st10,.st11,.st12,.st13,.st5,.st6,.st7,.st8,.st9{fill:url(#SVGID_00000062908203487080491160000003983581647076209313_);stroke:#000;stroke-width:.5;stroke-miterlimit:10}.st10,.st11,.st12,.st13,.st6,.st7,.st8,.st9{fill:url(#SVGID_00000029039769154252901530000017624989213845137087_)}.st10,.st11,.st12,.st13,.st7,.st8,.st9{fill:url(#SVGID_00000092415756474617337090000002146011429153988512_)}.st10,.st11,.st12,.st13,.st8,.st9{fill:url(#SVGID_00000016067157441721789820000015926689560728229311_)}.st10,.st11,.st12,.st13,.st9{fill:url(#SVGID_00000000921879954565854070000009814198770599401607_)}.st10,.st11,.st12,.st13{fill:url(#SVGID_00000000923826846904310220000013672545219256345277_);stroke-width:.75}.st11,.st12,.st13{fill:url(#SVGID_00000041279535303373430800000011199588252208463801_)}.st12,.st13{fill:url(#SVGID_00000033336488590071960130000009148741158523645344_)}.st13{fill:url(#SVGID_00000002379347125777820410000002953814818761810325_)}
  </style>
  <path d="M331.92 77.29c.74-1.47 1.48-2.95 2.22-4.42-.1-.1-.2-.19-.29-.29-.62.37-1.24.73-1.9 1.12-.21-.97-.22-2 .44-2.9 1.15-1.58.76-3.01-.08-4.59-2.25-4.2-4.69-8.28-7.68-12.09-.18-.23-.41-.44-.68-.74-.46 1.43-.88 2.74-1.34 4.15-.8-.6-1.44-1.07-2.07-1.55-.04 1.27.84 2.39-.1 3.5-.44.52-.94 1.01-1.47 1.57-1.26-1.8-2.11-3.73-3.99-4.93-.1.04-.2.08-.29.12.14.45.22.92.44 1.33 1 1.83 1.24 3.76 1.14 5.77-.06 1.16-.71 1.91-1.75 2.64-.13-.49-.19-.87-.34-1.23-.13-.32-.36-.61-.73-.93-.6 2.28-.92 4.63-3.25 6.23-.15-.63-.3-1.3-.51-2.19-1.14 1.6.08 3.99-2.54 4.81-1.21-4.69-.26-8.8 3.66-12.27-1.92.47-2.79 2.02-4.31 3.21.38-1.91 1.57-3.19 2.76-4.48-.05-.08-.11-.16-.16-.24-.78.32-1.57.63-2.67 1.08.45-1.34.69-2.56 1.26-3.64.56-1.07 1.45-1.99 2.3-3.11-2.07-.29-3.52 1.07-5.38 1.44.08-.83.16-1.61.24-2.39-.1-.03-.21-.07-.31-.1-.24.57-.59 1.11-.71 1.7-.19.95-.67 1.53-1.69 1.91-1.5.56-2.89 1.35-4.39 1.9-.87.32-1.86.33-2.78.55-.36.09-.69.34-.99.57-.22.17-.32.46-.54.62-1.37 1.06-2.75 2.09-4.26 3.06.01-5.37 2.99-9.47 6.84-13.21-.09-.09-.17-.18-.26-.27-1.41.81-2.81 1.62-4.22 2.43-.09-.09-.18-.18-.27-.26 1.05-.94 1.97-2.08 3.19-2.77 2.55-1.43 5.31-2.47 8.33-2.91 1.38-.2 2.72-.59 4.27-.93-1.11-1.58-2.9-1.92-4.64-2.77 1.02-1.88 2.04-3.78 3.07-5.67-2.39 1.34-3.54 3.53-4.74 5.69-.86-.34-1.17-.8-.76-1.53.32-.56.67-1.12.99-1.68.18-.31.32-.63.48-.94-.08-.07-.17-.14-.25-.21-.41.24-.89.41-1.2.72-.82.81-1.52 1.72-2.34 2.53-.26.26-.78.49-1.13.44-.91-.11-1.79-.39-2.92-.65 1.13-1.3 2.17-2.53 3.26-3.72.66-.72.71-.73.02-1.81-1.2 1.42-2.32 2.76-3.44 4.1-.05-.03-.11-.06-.16-.09l.39-2.02c-.09-.08-.17-.16-.26-.24-.88.53-1.99.91-2.61 1.64-1.25 1.46-2.78 1.7-4.79 1.34 1.21-1.06 2.37-2.06 3.88-2.6 2.94-1.07 5.88-2.19 8.89-3.08 2.82-.84 5.79-.78 8.68-.25 2.49.46 4.92 1.13 7.38 1.7.38.09.76.15 1.15.23.08-.1.17-.2.25-.3-.61-.49-1.15-1.11-1.86-1.45-.96-.47-2.07-.7-3.08-1.1-.33-.13-.74-.39-.82-.67-1.28-4.3-4.2-7.73-7.16-11.13l-.34-.4c1.57-.54 2.36-.35 3.16.84.42.62.67 1.34 1.05 1.98.35.59.77 1.15 1.15 1.73.12-.05.25-.1.37-.14-.26-1.07-.53-2.14-.85-3.47 1.89 1.16 3.27 2.49 4.55 3.89 1.26 1.38 2.43 2.83 3.7 4.3.82-1.54 1.61-2.93 2.32-4.36.48-.97.96-1.86 2.31-2.05.29-.04.51-.52.76-.81.38-.44.76-.89 1.27-1.49.64.95 1.06 1.57 1.49 2.2.08-.03.17-.05.25-.08 0-.44.02-.89-.01-1.33-.02-.37-.17-.74-.13-1.09.04-.34.25-.67.38-1.01.2.32.48.61.57.95.3 1.13.52 2.27.77 3.4.1 0 .2-.01.3-.01.11-1.12.22-2.25.34-3.37.06-.57.08-1.15.24-1.69.21-.68-.19-1.78 1.26-1.72.79.03 1.59.11 2.66.19.29-.26.59-1.22 1.83-.68-.17.76-.34 1.56-.56 2.57 1.25-.69 2.3-1.26 3.35-1.84-3.56 5.73-5.71 11.82-7.06 18.16-.06.3-.01.63-.01.94l.3.06c.34-.72.59-1.48 1.03-2.14.44-.67.94-1.39 1.62-1.84 1.78-1.19 3.7-2.14 5.81-2.88 3.58-1.25 7.28-1.67 11.03-1.99.21-.02.42.02.85.04-1.09.73-2.02 1.34-2.99 1.99-.13-.2-.25-.38-.47-.71-1.06 1.03-2.06 2-3.15 3.05.03-.59.06-1.14.09-1.69-.09-.03-.17-.05-.26-.08-.47.73-.98 1.45-1.39 2.2-.59 1.08-1.33 2.03-2.62 2.47-.37.12-.83.02-1.2.02-.84.58-1.71 1.27-2.67 1.83-1.9 1.1-3.84 2.15-5.8 3.17-.63.33-.77.75-.43 1.23.26.36.78.87 1.12.83 3.16-.37 6.08.35 8.98 1.36 2.04.72 4.13 1.33 6.24 1.94-3.52-2.64-7.63-4.43-11.8-6.38 1.77-.53 3.38-.72 5.11-.46 1.88.29 2.47 1.84 3.62 2.84.1-.03.21-.06.31-.1-.21-.87-.42-1.73-.68-2.77 1.66.4 3.45.11 4.77 1.41.17.16.59.2.88.17 1.75-.21 1.73-.22 2.36 1.3.67 1.61 1.38 3.22 2.19 4.8.53-1.64-.02-3.19-.46-4.75 1.8 2.56 2.74 5.38 3.09 8.46 1.58-1.21 2.5-5.24 2.57-10.14.05-3.54-.05-7.04-1.68-10.36.1-.06.19-.12.29-.19 1.45 1.42 2.91 2.83 4.31 4.29.15.16.01.63-.11.91-.35.79-.77 1.56-1.17 2.34.09.07.18.15.27.22.33-.21.66-.42 1.01-.62.47-.26.93-.55 1.43-.74.21-.08.52.03.79.06-.04.23 0 .5-.13.69-1.22 1.87-2.48 3.71-3.67 5.59-.35.56-.51 1.22-.61 1.93 2.58-3.12 4.87-6.46 9.05-8.33-.24 1.29-.46 2.49-.68 3.7.15.08.29.15.44.23.39-.39.9-.73 1.16-1.18 1.04-1.84 1.99-3.72 2.99-5.57.03-.06.19-.07.43-.14-.08.98-.15 1.89-.23 2.8 1.15-1.53 2.58-2.73 4.17-3.78.11.04.22.08.33.11-.15 1.13-.05 2.36-.53 3.37-.29.62-1.45.91-2.24 1.31-.45.23-.95.38-1.43.57l.09.37c1.17-.07 2.35-.15 3.7-.23-.14 1.21-.29 2.45-.46 3.96-1.63.49-3.59 1.07-5.54 1.65.02.06.04.11.05.17h4.89c-1.68 2.37-4.43 2.48-7.02 3.05.83 0 1.67.04 2.5-.01.83-.06 1.66-.21 2.55-.33-.16.39-.28.69-.35.85 1.72.94 3.37 1.84 5.02 2.74-4.9.96-7.45 2.22-7.34 3.92 2.32-1.33 4.86-1.46 7.46-1.45 1.07 0 1.91.18 2.65.92 1.21 1.21 2.49 2.35 3.88 3.64l-2.57-.32c2.28 1.52 4.55 3.03 6.81 4.53-.07.12-.15.24-.22.36-4.92-2.38-10.25-3.4-15.75-4.28.86-.18 1.72-.37 2.58-.55 0-.09.01-.19.01-.28-.35-.09-.7-.27-1.05-.26-.99.02-1.98.15-2.98.18-.76.03-1.53.03-2.28-.02-.94-.07-1.81-.26-1.47-1.29-2.06.62-4.14 1.24-6.21 1.89-.32.1-.6.31-.86.71l2.33.38c-.7.79-1.34 1.5-1.96 2.2 1.84 1.54 2.34 1.59 4.21.45 1.17-.71 2.07-.4 2.45.79.08.24.41.43.67.58.4.23.83.4 1.34.63-1.6 1.77-3.72 2.61-5.81 3.56 1.24.3 2.39.15 3.48-.3 1.61-.67 3.17-1.41 4.76-2.12.94-.42 2.92.62 3.08 1.54.08.46.4.88.58 1.24-1.2.51-2.46 1.04-3.73 1.58.02.1.04.21.05.31.4.03.81.13 1.19.07.98-.15 1.99-.27 2.91-.58 1-.35 1.55-.02 1.97.73.31.56.59 1.14.9 1.74-.47.22-.88.4-1.45.66.34.18.52.36.74.39 1.48.23 1.9 1.12 1.99 2.36.08 1.03.42 2.04.61 3.06.07.34.05.7.07.92-2.01-1.2-4.01-2.4-6.01-3.6-.08.08-.16.15-.24.23l.45 1.58c-2.96-2.24-5.74-4.62-8.83-6.61-3.12-2.01-6.78-3.04-10.65-3.81 0 .76-.11 1.46.02 2.12 1.34 6.91 1.42 13.88 1.18 20.86-.28 8.32-2.05 16.43-4.82 24.36-.17.5-.24 1.05-.24 1.58-.02 3.52-.02 7.05-.02 10.57 0 .55-.02.99-.85.98-2.89-.03-5.77-.02-8.66-.03-.13 0-.27-.07-.53-.13.76-1.58 1.53-3.09 2.23-4.63.92-2.01 1.83-4.03 2.66-6.07.25-.61.31-1.31.35-1.97.41-7.23-1.39-14.19-3.2-21.14-1.29-4.96-2.69-9.9-4.83-14.63-.53-1.16-.58-1.19-1.84-.65-1.04.45-2.07.93-3.1 1.4-.12-.11-.22-.22-.32-.33zm8.48-3.96c-.12-.02-.23-.04-.35-.07-.05.6-.3 1.26-.12 1.8.76 2.26 1.62 4.49 2.48 6.73 2.5 6.48 4.26 13.15 5.9 19.85.13.53.23 1.07.35 1.61l.35-.03c2.81-12.6 3.01-25.26 1.02-38.08-2.51.49-2.23 2.61-3.11 4.15-.7-.7-1.32-1.32-1.93-1.94-.09.05-.17.1-.26.15.14.29.3.58.43.87.39.89.8 1.77 1.14 2.67.1.27.13.71-.03.88-1.06 1.05-2.19 2.04-3.23 2.99-.57-1.57-1.05-2.92-1.54-4.27l-.49.09.42 5.19c-.08.01-.16.03-.24.04-.26-.88-.52-1.76-.79-2.63zm-4.28-7.49c2.71-3.42 5.88-6.16 10.01-8.08-1.66-.57-3.03-1.04-4.36-1.49-.23.71-.43 1.35-.7 2.22-1.02-1.55-2.06-2.59-3.67-3.32.62.96 1.11 1.73 1.7 2.64-1.43-.34-2.62-.72-3.84-.89-1.13-.15-1.96-.48-2.66-1.39-.76-.99-1.8-1.79-2.72-2.67-.1.08-.2.16-.29.24.18.38.36.77.61 1.3-.67-.17-1.19-.3-1.6-.4 2.47 3.9 4.93 7.78 7.52 11.84zm-2.48-16.55c.01.07.03.13.04.2 3.98.56 7.97 1.13 11.95 1.69l.17-.2-2.97-2.28-.26.26c.19.34.39.68.58 1.02-.08.09-.15.19-.23.28-.62-.33-1.27-.61-1.84-1.01-1.15-.8-2.1-1.92-3.78-2 .22.66.42 1.24.6 1.77-1.51.1-2.89.18-4.26.27zm23.28 4.98c1.05.11 2.02.11 2.84-.65 1.12-1.04 2.28-2.05 3.47-3.02.3-.25.78-.44 1.17-.43 1.65.06 2.61-.98 3.68-1.87-4.45.78-8.29 2.56-11.16 5.97zm-29.93-21.9c-1.13-2-1.94-3.97-4.07-5.05-.74-.38-1.31-.01-1.84.4 1.94 1.52 3.83 3.01 5.91 4.65zm18.97 17.99c.6.59 1.03 1.41 1.66 1.56 1.03.25 2.19.07 3.3.07-.95-2.17-2.79-2.83-4.96-1.63zM315.2 44.2c-.5-.93-.91-1.69-1.44-2.66-.28.75-.53 1.25-.66 1.77-.14.55-.37.85-1.04.79-.72-.07-.83-.5-.8-1.01.06-1.15.16-2.3.26-3.61-1.2 1.51-1.06 3.23-1.62 4.99 1.82-.09 3.46-.17 5.3-.27z" style="stroke: rgb(241, 90, 36); stroke-width: 0.25; stroke-miterlimit: 10;" class="svg-elem-1"></path>
  <linearGradient id="SVGID_1_" gradientUnits="userSpaceOnUse" x1="78.35" y1="95.721" x2="114.209" y2="95.721">
    <stop offset="0" style="stop-color:#cce0f4"></stop>
    <stop offset=".064" style="stop-color:#c3dcf2"></stop>
    <stop offset=".171" style="stop-color:#a9d2ee"></stop>
    <stop offset=".307" style="stop-color:#80c2e7"></stop>
    <stop offset=".465" style="stop-color:#47acde"></stop>
    <stop offset=".567" style="stop-color:#1e9cd7"></stop>
    <stop offset=".865" style="stop-color:#0075be"></stop>
    <stop offset=".994" style="stop-color:#005b97"></stop>
  </linearGradient>
  <path d="M84.68 113.61V77.83h-6.33v-5.97h20v5.97h-6.01v35.78h14.98V97.39h6.89v22.19H78.35v-5.97h6.33z" style="fill: url(&quot;#SVGID_1_&quot;); stroke: rgb(0, 0, 0); stroke-width: 0.5; stroke-miterlimit: 10;" class="svg-elem-2"></path>
  <linearGradient id="SVGID_00000111905182156369331180000005720813876954119304_" gradientUnits="userSpaceOnUse" x1="117.443" y1="102.993" x2="153.443" y2="102.993">
    <stop offset="0" style="stop-color:#cce0f4"></stop>
    <stop offset=".064" style="stop-color:#c3dcf2"></stop>
    <stop offset=".171" style="stop-color:#a9d2ee"></stop>
    <stop offset=".307" style="stop-color:#80c2e7"></stop>
    <stop offset=".465" style="stop-color:#47acde"></stop>
    <stop offset=".567" style="stop-color:#1e9cd7"></stop>
    <stop offset=".865" style="stop-color:#0075be"></stop>
    <stop offset=".994" style="stop-color:#005b97"></stop>
  </linearGradient>
  <path style="fill: url(&quot;#SVGID_00000111905182156369331180000005720813876954119304_&quot;); stroke: rgb(0, 0, 0); stroke-width: 0.5; stroke-miterlimit: 10;" d="M153.44 104.62h-28.62c.42 3.06 1.66 5.55 3.73 7.44 2.06 1.9 4.7 2.85 7.91 2.85 4.66 0 8.35-1.83 11.07-5.49l5.91 2.54c-1.92 2.9-4.42 5.06-7.49 6.47a22.81 22.81 0 0 1-9.63 2.11c-5.2 0-9.65-1.58-13.34-4.75-3.69-3.17-5.54-7.44-5.54-12.81 0-5.1 1.8-9.3 5.4-12.59 3.6-3.29 7.73-4.94 12.39-4.94 4.57 0 8.71 1.61 12.43 4.82 3.71 3.21 5.64 8 5.78 14.35zm-6.89-4.73c-.47-2.33-1.71-4.44-3.73-6.33-2.02-1.89-4.49-2.83-7.42-2.83-2.67 0-4.96.85-6.86 2.56-1.9 1.7-3.06 3.91-3.48 6.6h21.49z" class="svg-elem-3"></path>
  <linearGradient id="SVGID_00000041257787127483613580000004700598949953816739_" gradientUnits="userSpaceOnUse" x1="158.471" y1="95.378" x2="175.697" y2="95.378">
    <stop offset="0" style="stop-color:#cce0f4"></stop>
    <stop offset=".064" style="stop-color:#c3dcf2"></stop>
    <stop offset=".171" style="stop-color:#a9d2ee"></stop>
    <stop offset=".307" style="stop-color:#80c2e7"></stop>
    <stop offset=".465" style="stop-color:#47acde"></stop>
    <stop offset=".567" style="stop-color:#1e9cd7"></stop>
    <stop offset=".865" style="stop-color:#0075be"></stop>
    <stop offset=".994" style="stop-color:#005b97"></stop>
  </linearGradient>
  <path style="fill: url(&quot;#SVGID_00000041257787127483613580000004700598949953816739_&quot;); stroke: rgb(0, 0, 0); stroke-width: 0.5; stroke-miterlimit: 10;" d="M163.74 113.78V92.17h-5.27v-5.8h11.95v27.41h5.27v5.8h-17.23v-5.8h5.28zm-.95-38.69c0-1.05.38-1.97 1.14-2.74.76-.78 1.73-1.17 2.9-1.17 1.1 0 2.05.38 2.85 1.13.8.75 1.2 1.68 1.2 2.78s-.4 2.03-1.2 2.8c-.8.77-1.75 1.15-2.85 1.15-1.12 0-2.08-.39-2.87-1.17-.77-.78-1.17-1.71-1.17-2.78z" class="svg-elem-4"></path>
  <linearGradient id="SVGID_00000093857827386406524970000001104507576067954599_" gradientUnits="userSpaceOnUse" x1="180.092" y1="102.994" x2="208.041" y2="102.994">
    <stop offset="0" style="stop-color:#cce0f4"></stop>
    <stop offset=".064" style="stop-color:#c3dcf2"></stop>
    <stop offset=".171" style="stop-color:#a9d2ee"></stop>
    <stop offset=".307" style="stop-color:#80c2e7"></stop>
    <stop offset=".465" style="stop-color:#47acde"></stop>
    <stop offset=".567" style="stop-color:#1e9cd7"></stop>
    <stop offset=".865" style="stop-color:#0075be"></stop>
    <stop offset=".994" style="stop-color:#005b97"></stop>
  </linearGradient>
  <path style="fill: url(&quot;#SVGID_00000093857827386406524970000001104507576067954599_&quot;); stroke: rgb(0, 0, 0); stroke-width: 0.5; stroke-miterlimit: 10;" d="M180.09 119.58v-11.39h5.98v1.1c.21 1.56 1.07 2.84 2.58 3.84 1.51 1.01 3.3 1.51 5.36 1.51 2.16 0 3.88-.37 5.17-1.1 1.29-.73 1.93-1.75 1.93-3.05 0-1.26-.53-2.18-1.6-2.78-1.07-.6-3.18-1.14-6.35-1.64-4.69-.77-8.03-2.02-10.04-3.75-2-1.73-3-3.96-3-6.71 0-2.77 1.09-5.09 3.27-6.95s5.05-2.8 8.61-2.8c3.21 0 5.98.65 8.3 1.93v-1.42h5.94v11.01h-5.94v-2.02c-1.81-2.72-4.43-4.08-7.88-4.08-1.76 0-3.21.37-4.34 1.11-1.14.74-1.71 1.73-1.71 2.97 0 1.26.52 2.12 1.56 2.59 1.04.47 3.29.97 6.73 1.49 3.3.5 5.8 1.09 7.49 1.76s3.09 1.8 4.2 3.36c1.11 1.57 1.67 3.39 1.67 5.47 0 3.09-1.21 5.54-3.64 7.36-2.43 1.82-5.57 2.73-9.44 2.73-3.63 0-6.6-.81-8.89-2.42v1.87h-5.96z" class="svg-elem-5"></path>
  <linearGradient id="SVGID_00000102530005838904426820000011111362049145792934_" gradientUnits="userSpaceOnUse" x1="211.978" y1="103.251" x2="249.947" y2="103.251">
    <stop offset="0" style="stop-color:#cce0f4"></stop>
    <stop offset=".064" style="stop-color:#c3dcf2"></stop>
    <stop offset=".171" style="stop-color:#a9d2ee"></stop>
    <stop offset=".307" style="stop-color:#80c2e7"></stop>
    <stop offset=".465" style="stop-color:#47acde"></stop>
    <stop offset=".567" style="stop-color:#1e9cd7"></stop>
    <stop offset=".865" style="stop-color:#0075be"></stop>
    <stop offset=".994" style="stop-color:#005b97"></stop>
  </linearGradient>
  <path style="fill: url(&quot;#SVGID_00000102530005838904426820000011111362049145792934_&quot;); stroke: rgb(0, 0, 0); stroke-width: 0.5; stroke-miterlimit: 10;" d="M249.95 113.78v5.8H237.4v-3.81c-3.91 2.9-7.66 4.36-11.25 4.36-2.27 0-4.15-.49-5.64-1.46-1.49-.97-2.48-2.23-2.97-3.77-.49-1.54-.74-4.03-.74-7.46V92.17h-4.82v-5.8h11.5v20.24c0 2.45.07 4.09.21 4.94s.55 1.54 1.23 2.09c.68.55 1.53.82 2.57.82 3.09 0 6.4-1.44 9.91-4.32V92.17h-6.01v-5.8h12.69v27.41h5.87z" class="svg-elem-6"></path>
  <linearGradient id="SVGID_00000019635918797936446950000001793413063026143370_" gradientUnits="userSpaceOnUse" x1="252.232" y1="102.719" x2="279.654" y2="102.719">
    <stop offset="0" style="stop-color:#cce0f4"></stop>
    <stop offset=".064" style="stop-color:#c3dcf2"></stop>
    <stop offset=".171" style="stop-color:#a9d2ee"></stop>
    <stop offset=".307" style="stop-color:#80c2e7"></stop>
    <stop offset=".465" style="stop-color:#47acde"></stop>
    <stop offset=".567" style="stop-color:#1e9cd7"></stop>
    <stop offset=".865" style="stop-color:#0075be"></stop>
    <stop offset=".994" style="stop-color:#005b97"></stop>
  </linearGradient>
  <path style="fill: url(&quot;#SVGID_00000019635918797936446950000001793413063026143370_&quot;); stroke: rgb(0, 0, 0); stroke-width: 0.5; stroke-miterlimit: 10;" d="M259.09 113.78V92.17h-6.86v-5.8h12.2v7.48c.75-1.94 1.79-3.56 3.13-4.84 1.34-1.28 2.75-2.13 4.24-2.54 1.49-.41 3.52-.62 6.1-.62h1.76v6.59h-1.34c-3.4 0-5.94.33-7.61 1-1.68.66-2.92 1.87-3.73 3.62s-1.21 4.89-1.21 9.42v7.31h7.42v5.8h-20.95v-5.8h6.85z" class="svg-elem-7"></path>
  <linearGradient id="SVGID_00000145751573711474507250000012178071725586219397_" gradientUnits="userSpaceOnUse" x1="279.69" y1="102.993" x2="315.69" y2="102.993">
    <stop offset="0" style="stop-color:#cce0f4"></stop>
    <stop offset=".064" style="stop-color:#c3dcf2"></stop>
    <stop offset=".171" style="stop-color:#a9d2ee"></stop>
    <stop offset=".307" style="stop-color:#80c2e7"></stop>
    <stop offset=".465" style="stop-color:#47acde"></stop>
    <stop offset=".567" style="stop-color:#1e9cd7"></stop>
    <stop offset=".865" style="stop-color:#0075be"></stop>
    <stop offset=".994" style="stop-color:#005b97"></stop>
  </linearGradient>
  <path style="fill: url(&quot;#SVGID_00000145751573711474507250000012178071725586219397_&quot;); stroke: rgb(0, 0, 0); stroke-width: 0.5; stroke-miterlimit: 10;" d="M315.69 104.62h-28.62c.42 3.06 1.66 5.55 3.73 7.44 2.06 1.9 4.7 2.85 7.91 2.85 4.66 0 8.35-1.83 11.07-5.49l5.91 2.54c-1.92 2.9-4.42 5.06-7.49 6.47a22.81 22.81 0 0 1-9.63 2.11c-5.2 0-9.65-1.58-13.34-4.75-3.69-3.17-5.54-7.44-5.54-12.81 0-5.1 1.8-9.3 5.4-12.59 3.6-3.29 7.73-4.94 12.39-4.94 4.57 0 8.71 1.61 12.43 4.82 3.71 3.21 5.64 8 5.78 14.35zm-6.89-4.73c-.47-2.33-1.71-4.44-3.73-6.33-2.02-1.89-4.49-2.83-7.42-2.83-2.67 0-4.96.85-6.86 2.56-1.9 1.7-3.06 3.91-3.48 6.6h21.49z" class="svg-elem-8"></path>
  <linearGradient id="SVGID_00000005955853896568506560000010107413610198365329_" gradientUnits="userSpaceOnUse" x1="372.774" y1="116.366" x2="408.345" y2="88.575">
    <stop offset="0" style="stop-color:#cce0f4"></stop>
    <stop offset=".047" style="stop-color:#cee1eb"></stop>
    <stop offset=".124" style="stop-color:#d5e2d1"></stop>
    <stop offset=".223" style="stop-color:#dfe5a8"></stop>
    <stop offset=".34" style="stop-color:#eee96e"></stop>
    <stop offset=".462" style="stop-color:#ffee2a"></stop>
    <stop offset=".708" style="stop-color:#006a2a"></stop>
    <stop offset=".994" style="stop-color:#ff1549"></stop>
  </linearGradient>
  <path style="fill: url(&quot;#SVGID_00000005955853896568506560000010107413610198365329_&quot;); stroke: rgb(0, 0, 0); stroke-width: 0.75; stroke-miterlimit: 10;" d="M383.88 116.51V80.74h-6.33v-5.97h20v5.97h-6.01v35.78h14.98v-16.23h6.89v22.19h-35.86v-5.97h6.33z" class="svg-elem-9"></path>
  <linearGradient id="SVGID_00000008866555214085096500000011720348785804270219_" gradientUnits="userSpaceOnUse" x1="409.232" y1="113.307" x2="439.167" y2="89.92">
    <stop offset="0" style="stop-color:#cce0f4"></stop>
    <stop offset=".047" style="stop-color:#cee1eb"></stop>
    <stop offset=".124" style="stop-color:#d5e2d1"></stop>
    <stop offset=".223" style="stop-color:#dfe5a8"></stop>
    <stop offset=".34" style="stop-color:#eee96e"></stop>
    <stop offset=".462" style="stop-color:#ffee2a"></stop>
    <stop offset=".708" style="stop-color:#006a2a"></stop>
    <stop offset=".994" style="stop-color:#ff1549"></stop>
  </linearGradient>
  <path style="fill: url(&quot;#SVGID_00000008866555214085096500000011720348785804270219_&quot;); stroke: rgb(0, 0, 0); stroke-width: 0.75; stroke-miterlimit: 10;" d="M421.67 116.68V95.07h-5.27v-5.8h11.95v27.41h5.27v5.8H416.4v-5.8h5.27zm-.95-38.69c0-1.05.38-1.97 1.14-2.74.76-.78 1.73-1.17 2.9-1.17 1.1 0 2.05.38 2.85 1.13.8.75 1.2 1.68 1.2 2.78s-.4 2.03-1.2 2.8c-.8.77-1.75 1.15-2.85 1.15-1.12 0-2.08-.39-2.87-1.17-.77-.78-1.17-1.7-1.17-2.78z" class="svg-elem-10"></path>
  <linearGradient id="SVGID_00000105404503411952291310000016303403275945922958_" gradientUnits="userSpaceOnUse" x1="430.656" y1="114.314" x2="465.827" y2="86.836">
    <stop offset="0" style="stop-color:#cce0f4"></stop>
    <stop offset=".047" style="stop-color:#cee1eb"></stop>
    <stop offset=".124" style="stop-color:#d5e2d1"></stop>
    <stop offset=".223" style="stop-color:#dfe5a8"></stop>
    <stop offset=".34" style="stop-color:#eee96e"></stop>
    <stop offset=".462" style="stop-color:#ffee2a"></stop>
    <stop offset=".708" style="stop-color:#006a2a"></stop>
    <stop offset=".994" style="stop-color:#ff1549"></stop>
  </linearGradient>
  <path style="fill: url(&quot;#SVGID_00000105404503411952291310000016303403275945922958_&quot;); stroke: rgb(0, 0, 0); stroke-width: 0.75; stroke-miterlimit: 10;" d="M441.99 116.68V95.04h-4.96v-5.76h4.96v-4.79c0-4.04.88-6.83 2.64-8.37s3.83-2.31 6.22-2.31c5.16 0 8.14 2.55 8.96 7.65l-5.94.89c-.23-2.13-1.09-3.19-2.57-3.19-1.01 0-1.7.34-2.07 1.01-.38.67-.56 2.11-.56 4.32v4.79h5.84v5.76h-5.84v21.65h6.47v5.8h-18.11v-5.8h4.96z" class="svg-elem-11"></path>
  <linearGradient id="SVGID_00000176017925196527538330000003425618172137295014_" gradientUnits="userSpaceOnUse" x1="464.704" y1="117.528" x2="492.89" y2="95.507">
    <stop offset="0" style="stop-color:#cce0f4"></stop>
    <stop offset=".047" style="stop-color:#cee1eb"></stop>
    <stop offset=".124" style="stop-color:#d5e2d1"></stop>
    <stop offset=".223" style="stop-color:#dfe5a8"></stop>
    <stop offset=".34" style="stop-color:#eee96e"></stop>
    <stop offset=".462" style="stop-color:#ffee2a"></stop>
    <stop offset=".708" style="stop-color:#006a2a"></stop>
    <stop offset=".994" style="stop-color:#ff1549"></stop>
  </linearGradient>
  <path style="fill: url(&quot;#SVGID_00000176017925196527538330000003425618172137295014_&quot;); stroke: rgb(0, 0, 0); stroke-width: 0.75; stroke-miterlimit: 10;" d="M496.49 107.53h-28.62c.42 3.07 1.66 5.55 3.73 7.44 2.06 1.9 4.7 2.85 7.91 2.85 4.66 0 8.36-1.83 11.07-5.49l5.91 2.54c-1.92 2.9-4.42 5.06-7.49 6.47a22.81 22.81 0 0 1-9.63 2.11c-5.2 0-9.65-1.58-13.34-4.75-3.69-3.17-5.54-7.44-5.54-12.81 0-5.1 1.8-9.3 5.4-12.59s7.73-4.94 12.39-4.94c4.57 0 8.71 1.61 12.43 4.82 3.71 3.2 5.64 7.99 5.78 14.35zm-6.89-4.74c-.47-2.33-1.71-4.44-3.73-6.33-2.02-1.89-4.49-2.83-7.42-2.83-2.67 0-4.96.85-6.86 2.56-1.9 1.7-3.06 3.91-3.48 6.6h21.49z" class="svg-elem-12"></path>
  <path style="fill: none;" d="M374.26 134.67h213.97V196H374.26z" class="svg-elem-13"></path>
  <text transform="matrix(1.0249 0 0 1 435.934 150.924)" style="font-size:23.4175px;font-family:'MongolianBaiti'">vacations</text>
</svg>
